<?xml version="1.0" standalone="no"?>
<!DOCTYPE svg PUBLIC "-//W3C//DTD SVG 20010904//EN"
 "http://www.w3.org/TR/2001/REC-SVG-20010904/DTD/svg10.dtd">
<svg version="1.0" xmlns="http://www.w3.org/2000/svg"
 width="320.000000pt" height="320.000000pt" viewBox="0 0 320.000000 320.000000"
 preserveAspectRatio="xMidYMid meet">
<metadata>
Created by potrace 1.14, written by Peter Selinger 2001-2017
</metadata>
<g transform="translate(0.000000,320.000000) scale(0.100000,-0.100000)"
fill="#000000" stroke="none">
<path d="M1459 3196 c-2 -3 -33 -7 -69 -10 -240 -22 -572 -163 -781 -332 -312
-251 -500 -563 -584 -968 -27 -125 -27 -441 -1 -571 65 -323 207 -598 425
-823 253 -262 601 -439 941 -479 83 -10 347 -10 423 0 470 61 898 344 1160
767 107 174 191 416 215 620 8 74 9 321 0 395 -20 173 -73 349 -159 520 -174
349 -471 623 -834 770 -90 36 -233 77 -315 90 -25 4 -54 9 -65 12 -25 6 -351
14 -356 9z m435 -186 c383 -85 703 -303 912 -622 437 -667 254 -1550 -416
-1995 -188 -125 -417 -208 -635 -230 -89 -9 -251 -8 -335 1 -159 19 -376 92
-533 180 -182 101 -377 285 -495 464 -342 525 -307 1207 89 1697 60 74 169
182 235 231 21 16 41 31 44 34 11 13 139 89 195 117 133 67 325 127 445 140
30 3 57 7 60 10 2 2 79 2 170 -1 121 -3 192 -10 264 -26z"/>
<path d="M884 2150 l1 -89 196 -203 c108 -112 266 -274 350 -360 l154 -158
185 181 c102 100 267 262 368 360 100 98 182 182 182 186 4 68 4 173 0 173 -3
0 -53 -46 -112 -102 -80 -78 -598 -581 -624 -608 -3 -2 -8 1 -12 7 -4 6 -125
132 -268 279 -144 148 -296 304 -337 347 -41 42 -77 77 -79 77 -2 0 -4 -40 -4
-90z"/>
<path d="M644 1638 l1 -534 42 -44 c23 -25 62 -67 87 -95 l46 -50 0 415 0 415
106 -110 c83 -86 573 -591 643 -662 12 -13 26 -2 105 76 50 49 228 225 396
390 l305 299 5 -410 5 -410 39 44 c21 23 59 65 84 92 l47 50 0 533 0 533 -80
-79 c-44 -44 -262 -260 -485 -480 l-405 -401 -195 198 c-107 109 -319 326
-471 481 l-275 283 0 -534z"/>
<path d="M884 1459 l1 -95 150 -153 c83 -85 191 -196 240 -247 209 -214 308
-314 311 -312 2 2 112 109 246 239 134 130 298 290 366 355 l123 120 -3 91 -3
91 -201 -196 c-350 -342 -499 -487 -517 -501 -15 -12 -37 7 -210 184 -105 109
-262 270 -348 359 l-156 160 1 -95z"/>
</g>
</svg>
