<svg xmlns="http://www.w3.org/2000/svg" fill="none" viewBox="0 0 661 200"><path fill="#fff" d="M214.065 86.91h2.9V70.405l-1.374-2.726h-2.595v-.454h8.397l6.717 13.324 5.344-13.324h8.091v.454h-3.053v19.23h3.053v.605h-11.298v-.606h3.054V69.194l-7.023 18.321h-.458l-8.091-16.05V86.91h3.816v.606h-7.48v-.606ZM247.804 67.68h-3.053v-.454h11.298v.454h-2.901v12.264l8.549-12.718h6.718v.454h-3.054v19.23h3.054v.605h-12.061v-.606h3.664v-16.2L248.11 88.725h-.306V67.68ZM271.621 86.91h3.664l5.954-9.085-6.718-10.145h-2.595v-.454h12.214v.454h-3.664l4.885 7.268 4.733-7.268h-3.512v-.454h7.023v.454h-2.748l-5.191 7.722L293.3 86.91h2.595v.606h-12.671v-.606h4.122l-5.802-8.479-5.648 8.48h4.732v.605h-9.007v-.606ZM311.773 80.247l-3.359-9.387-3.664 9.387h7.023Zm-12.825 6.662h2.596l6.717-16.958-.763-2.27h-2.29v-.606h7.481l6.87 19.834h2.595v.606h-11.908v-.606h3.969l-2.137-6.056h-7.328l-2.443 6.056h4.733v.606h-7.939v-.606h-.153ZM328.566 59.807v-.303h.458v.303c0 1.817 1.527 2.725 5.038 2.725 3.512 0 5.038-.908 5.038-2.725v-.303h.458v.303c0 3.482-2.137 6.056-5.496 6.056-3.206-.151-5.496-2.574-5.496-6.056Zm-3.206 7.873h-3.053v-.605h11.297v.605h-3.053v12.264l8.549-12.718h6.718v.606h-3.054V87.06h3.054v.605H333.91v-.605h3.664V70.86l-11.909 18.018h-.305V67.68ZM349.024 87.515v-6.36h.305c.611 1.212 1.832 2.12 3.359 2.12 1.985 0 3.359-4.239 3.359-8.933 0-1.665-.153-2.725-.611-6.662h-3.206v-.605h18.778v.605h-3.053v19.23h3.053v.605H359.1v-.606h3.664V67.68h-4.733l-.458 2.574c-1.221 7.722-1.984 11.81-3.206 14.838-.763 1.817-1.832 2.726-3.511 2.726-.458.151-1.222 0-1.832-.303ZM387.649 77.37c0-6.813-1.832-10.144-5.191-10.144-3.358 0-5.19 3.18-5.19 10.145 0 6.813 1.832 10.144 5.19 10.144 3.359-.151 5.191-3.331 5.191-10.144Zm-15.878 0c0-6.207 4.428-10.598 10.687-10.598 6.26 0 10.687 4.39 10.687 10.599 0 6.207-4.427 10.598-10.687 10.598-6.259 0-10.687-4.39-10.687-10.598ZM405.053 86.91c2.596 0 3.97-1.666 3.97-4.694s-1.374-4.694-3.97-4.694h-2.137v9.236h2.137v.151Zm-.61-9.842c2.595 0 4.122-1.666 4.122-4.694s-1.374-4.694-4.122-4.694h-1.527v9.236h1.527v.152Zm-9.924 9.841h3.053V67.68h-3.053v-.605h10.076c5.649 0 9.008 1.968 9.008 5.299 0 2.423-1.985 4.088-5.344 4.845v.152c3.97.454 6.107 2.27 6.107 4.996 0 3.331-3.359 5.3-8.702 5.3h-11.145v-.758ZM434.671 65.863h5.496l-2.595 5.603h-.306l-2.595-5.603Zm-2.137 21.046h2.748V73.585h-2.748v-.605h7.175v13.93h2.748v.605h-9.923v-.606Z"/><path fill="#fff" d="m435.129 66.166 2.443 5.148 2.442-5.148h-4.885Zm-2.29 21.046h9.465-2.748v-13.93h-6.564 2.748v13.93h-2.901Zm9.923.606h-10.381v-1.06h2.748v-12.87h-2.748v-1.06h7.633v13.93h2.748v1.06ZM457.877 67.983h3.053v18.624h-3.053v1.21h10.686v-1.21h-1.832V67.983h6.412v18.624h-1.832v1.21h10.687v-1.21h-3.053V67.983h3.053v-1.06h-24.121v1.06ZM494.517 71.617l2.901 8.328h-6.26l3.359-8.328Zm4.275-4.694h-7.939v1.06h2.29l.611 1.968-6.565 16.656h-2.748v1.06h8.397v-1.06h-4.58l2.137-5.603h7.023l1.984 5.603h-3.816v1.06h12.519v-1.06h-2.748l-6.565-19.684ZM520.013 67.983h1.068c2.29 0 3.665 1.817 3.665 4.997 0 3.18-1.222 4.996-3.665 4.996h-1.068v-9.993Zm1.374-1.06h-10.229v1.06h3.053v18.624h-3.053v1.06h12.519v-1.06h-3.664v-7.57h1.374c5.649 0 9.007-2.272 9.007-6.057 0-3.786-3.358-6.057-9.007-6.057ZM552.226 66.923h-17.862v-1.968h-1.069v9.842h1.069v-1.363c0-2.12 2.9-5.45 4.885-5.45h1.221v18.623h-3.664v1.06h12.977v-1.06h-3.664V67.983h1.221c1.985 0 4.886 3.18 4.886 5.45v1.364h1.069v-9.842h-1.069v1.968ZM569.477 67.983h1.832v8.782h-6.412v-8.782h1.832v-1.06h-10.686v1.06h3.053v18.624h-3.053v1.21h10.686v-1.21h-1.832v-8.782h6.412v8.782h-1.832v1.21h10.535v-1.21h-2.901V67.983h2.901v-1.06h-10.535v1.06ZM600.622 81.156c0 2.12-3.206 5.602-6.87 5.602h-1.832v-8.782h1.679c1.679 0 2.443 1.363 2.443 2.423v1.211h.916v-8.479h-.916v1.211c0 1.06-.764 2.423-2.443 2.423h-1.679v-8.782h1.526c3.206 0 5.802 3.028 5.802 4.845v1.363h1.069v-9.388h-1.069v1.969h-16.03v1.06h3.053v18.623h-3.053v1.06h17.557v1.968h1.068V79.34h-1.068v1.817h-.153ZM618.026 72.98c0 3.18-1.221 4.996-3.664 4.996h-1.069v-9.993h1.069c2.443 0 3.664 1.817 3.664 4.997Zm-3.206-6.057h-10.229v1.06h3.054v18.624h-3.054v1.06h12.519v-1.06h-3.664v-7.57h1.374c5.649 0 9.007-2.272 9.007-6.057 0-3.786-3.358-6.057-9.007-6.057ZM649.476 67.983v-1.06h-7.023l-8.244 12.113V67.983h3.053v-1.06h-11.908v1.06h3.054V89.03h.763l11.45-17.412v14.99h-3.511v1.21h12.366v-1.21h-3.053V67.983h3.053ZM230.247 129.455l-3.511-8.024-3.511 8.024h7.022Zm-12.06 4.996h1.984l5.954-13.323-.152-.303h-2.443v-.757h3.969l6.26 14.534h2.137v.757h-6.564v-.757h3.206l-1.832-4.239h-7.634l-1.832 4.239h3.206v.757h-6.259v-.908ZM250.858 134.452v-13.627h-6.87c-.458 5.451-1.374 9.842-2.29 13.627h9.16Zm-12.061-.151h1.985c.763-3.331 1.679-7.268 1.984-11.659v-2.12h-2.442v-.757h14.045v.757h-2.443v13.627h2.443v4.543h-.763v-3.029c0-.151-.306-.454-.458-.454h-12.824a.843.843 0 0 0-.764.454v3.18h-.763v-4.542ZM269.025 134.451c2.596 0 3.97-1.211 3.97-3.18 0-1.968-1.527-3.179-3.97-3.179h-4.274v6.51h4.274v-.151Zm-.61-7.267c2.595 0 3.969-1.211 3.969-3.18 0-1.968-1.527-3.179-3.969-3.179h-3.512v6.51h3.512v-.151Zm-7.328 7.267h2.442v-13.626h-2.442v-.757h7.48c3.206 0 5.191 1.514 5.191 3.936 0 1.817-1.069 3.028-2.901 3.634v.151c2.443.455 3.664 1.817 3.664 3.785 0 2.423-1.984 3.937-5.19 3.937h-8.244v-1.06ZM296.2 127.638c0-4.239-2.748-7.116-6.717-7.116-3.817 0-6.717 2.877-6.717 7.116s2.748 7.116 6.717 7.116c3.817 0 6.717-3.028 6.717-7.116Zm-14.656 0c0-4.542 3.359-8.024 7.939-8.024s7.939 3.331 7.939 8.024c0 4.542-3.359 8.024-7.939 8.024-4.58-.151-7.939-3.482-7.939-8.024ZM304.292 134.451h2.595v-13.777h-2.595v-.757h6.259v.757h-2.442v6.51h2.748l5.496-6.51h-2.901v-.757h5.649v.757h-1.832l-5.496 6.51 6.412 7.267h1.984v.757h-6.564v-.757h3.053l-5.801-6.51h-2.748v6.51h2.442v.757h-6.259v-.757ZM334.673 129.455l-3.511-8.024-3.512 8.024h7.023Zm-12.214 4.996h1.985l5.954-13.323-.152-.303h-2.443v-.757h3.969l6.26 14.534h2.137v.757h-6.565v-.757h3.206l-1.832-4.239h-7.633l-1.832 4.239h3.206v.757h-6.26v-.908ZM349.482 134.451v-13.626h-4.886c-.152 0-.458.303-.458.606v3.482h-.763v-6.208h.763v1.514h11.909v-1.514h.763v6.208h-.763v-3.482c0-.303-.306-.606-.458-.606h-4.886v13.626h3.054v.757h-7.481v-.757h3.206ZM363.527 127.638c0-4.542 3.054-8.024 7.176-8.024a6.32 6.32 0 0 1 4.732 2.119v-2.725h.764v6.359h-.764v-1.363c0-1.816-2.29-3.633-4.732-3.633-3.359 0-5.802 2.876-5.802 7.115 0 4.24 2.443 7.116 5.802 7.116 2.595 0 5.038-1.968 5.038-4.088V129h.763v6.208h-.763v-2.12c-1.069 1.363-2.901 2.271-5.038 2.271-4.122.151-7.176-3.179-7.176-7.721ZM391.16 134.451c2.748 0 4.428-1.363 4.428-3.634s-1.68-3.633-4.428-3.633h-3.206v7.267h3.206Zm-6.87 0h2.443v-13.626h-2.443v-.757h6.87v.757h-3.053v5.602h3.206c3.511 0 5.649 1.665 5.649 4.39 0 2.725-2.138 4.391-5.649 4.391h-6.87v-.757h-.153ZM403.527 134.451h2.595v-13.777h-2.595v-.757h6.259v.757h-2.443v6.51h2.748l5.496-6.51h-2.9v-.757h5.648v.757h-1.832l-5.343 6.51 6.259 7.267h1.985v.757h-6.565v-.757h3.054l-5.802-6.51h-2.748v6.51h2.443v.757h-6.259v-.757ZM436.198 135.209h-11.909v-.757h2.443v-13.627h-2.443v-.757h10.687v-1.514h.764v6.208h-.764v-3.331c0-.152-.305-.454-.61-.454h-6.412v6.51h3.511c.153 0 .305-.151.305-.303v-1.968h.764v5.148h-.764v-1.968c0-.152-.152-.303-.305-.303h-3.511v6.51h7.48c.306 0 .611-.302.611-.605v-3.331h.763v6.208h-.763v-1.666h.153ZM469.785 127.638c0-4.239-2.748-7.116-6.718-7.116-3.816 0-6.717 2.877-6.717 7.116s2.748 7.116 6.717 7.116c3.97 0 6.718-3.028 6.718-7.116Zm-14.504 0c0-4.542 3.359-8.024 7.939-8.024s7.939 3.331 7.939 8.024c0 4.542-3.359 8.024-7.939 8.024-4.58-.151-7.939-3.482-7.939-8.024ZM485.204 134.451c2.748 0 4.428-1.363 4.428-3.482 0-2.271-1.68-3.483-4.428-3.483h-3.358v7.116h3.358v-.151Zm-7.175 0h2.443v-13.626h-2.443v-.757h10.992v-1.514h.763v6.056h-.763v-3.331c0-.151-.305-.454-.611-.454h-6.717v5.904h3.511c3.512 0 5.802 1.666 5.802 4.24 0 2.725-2.138 4.39-5.802 4.39h-7.175v-.908ZM497.723 119.917l.611 4.087h.305l.611-4.087h-1.527ZM505.815 127.638c0-4.542 3.053-8.024 7.175-8.024 1.985 0 3.664.908 4.733 2.119v-2.725h.763v6.359h-.916v-1.363c0-1.816-2.29-3.633-4.733-3.633-3.206 0-5.648 2.725-5.801 6.813h5.038c.153 0 .305-.152.305-.303v-1.968h.764v5.147h-.764v-1.968c0-.151-.152-.303-.305-.303h-5.038c.153 4.088 2.595 6.813 5.801 6.813 2.596 0 5.038-1.968 5.038-4.088V129h.764v6.359h-.764v-2.422c-1.068 1.362-2.9 2.271-5.038 2.271-3.969.303-7.022-3.028-7.022-7.57ZM537.722 134.452v-13.627h-6.87c-.458 5.451-1.374 9.842-2.29 13.627h9.16Zm-12.06-.151h1.984c.764-3.331 1.68-7.268 1.985-11.659v-2.12h-2.443v-.757h14.046v.757h-2.29v13.627h2.442v4.543h-.916v-3.029c0-.151-.305-.454-.458-.454h-12.824a.842.842 0 0 0-.763.454v3.18h-.763v-4.542ZM547.951 134.451h2.595v-13.777h-2.595v-.757h6.718v.757h-2.901v6.51h9.313v-6.51h-2.901v-.757h6.717v.757h-2.595v13.777h2.595v.757h-6.717v-.757h2.901v-6.51h-9.313v6.51h2.901v.757h-6.718v-.757ZM581.08 129.455l-3.511-8.024-3.511 8.024h7.022Zm-12.213 4.996h1.985l5.954-13.323-.153-.303h-2.443v-.757h3.97l6.259 14.534h2.137v.757h-6.564v-.757h3.206l-1.832-4.239h-7.634l-1.832 4.239h3.206v.757h-6.259v-.908ZM590.698 134.451h2.443v-13.777h-2.443v-.757h6.565v.757h-2.901v6.51h9.313v-6.51h-2.9v-.757h6.717v.757h-2.443v13.777h2.443v.757h-6.717v-.757h2.9v-6.51h-9.313v6.51h2.901v.757h-6.565v-.757ZM614.057 134.451h2.442v-13.777h-2.442v-.757h6.564v.757h-2.9v6.51h9.313v-6.51h-2.901v-.757h6.717v.757h-2.442v13.777h2.442v.757h-6.717v-.757h2.901v-6.51h-9.313v6.51h2.9v.757h-6.564v-.757ZM646.88 127.789v-7.115h-2.9c-2.901 0-4.428 1.362-4.428 3.482 0 2.119 1.68 3.482 4.428 3.482h2.9v.151Zm-11.755 6.662h1.985l4.885-6.207c-2.443-.455-3.817-1.969-3.817-4.088 0-2.725 2.138-4.239 5.649-4.239h6.717v.757h-2.442v13.625h2.442v.757h-6.564v-.757h2.748v-5.904H643.064l-4.733 5.904h2.443v.757h-5.649v-.605Z"/><path fill="#D5AE78" d="M98.8 104.434 55.127 59.48v11.621L98.8 116.208l46.117-44.954V59.48L98.8 104.434Z"/><path fill="#D5AE78" d="m98.8 159.48 46.117-44.954v-11.621L98.8 147.859l-43.673-44.954v11.621L98.8 159.48Z"/><path fill="#D5AE78" d="m51.156 142.813-10.995-12.079V64.22l58.64 60.245 60.776-60.245v66.514l-10.995 12.079V90.979L98.8 140.06 51.156 90.979v51.834Z"/><path fill="#D5AE78" d="M99.87 9.939c-49.63 0-90.097 40.52-90.097 90.214 0 49.694 40.467 90.214 90.096 90.214 49.63 0 90.096-40.52 90.096-90.214 0-49.847-40.466-90.214-90.096-90.214Zm0 190.061C44.894 200 0 155.199 0 100 0 44.954 44.743 0 99.87 0c55.126 0 99.869 44.801 99.869 100s-44.896 100-99.87 100Z"/><path fill="#D5AE78" d="M660.451 100.153H197.448v7.033h463.003v-7.033Z"/></svg>